<?xml version="1.0" encoding="UTF-8" standalone="no"?>
<svg
   xmlns:dc="http://purl.org/dc/elements/1.1/"
   xmlns:cc="http://creativecommons.org/ns#"
   xmlns:rdf="http://www.w3.org/1999/02/22-rdf-syntax-ns#"
   xmlns:svg="http://www.w3.org/2000/svg"
   xmlns="http://www.w3.org/2000/svg"
   viewBox="0 0 133.33333 133.33333"
   height="133.33333"
   width="133.33333"
   xml:space="preserve"
   id="svg2"
   version="1.1"><metadata
     id="metadata8"><rdf:RDF><cc:Work
         rdf:about=""><dc:format>image/svg+xml</dc:format><dc:type
           rdf:resource="http://purl.org/dc/dcmitype/StillImage" /></cc:Work></rdf:RDF></metadata><defs
     id="defs6"><clipPath
       id="clipPath38"
       clipPathUnits="userSpaceOnUse"><path
         id="path36"
         d="M 0,100 H 100 V 0 H 0 Z" /></clipPath></defs><g
     transform="matrix(1.3333333,0,0,-1.3333333,0,133.33333)"
     id="g10"><g
       transform="translate(31.3726,71.02)"
       id="g12"><path
         id="path14"
         style="fill:#eeeeee;fill-opacity:1;fill-rule:nonzero;stroke:none"
         d="M 0,0 5.632,10.997 H 7.005 L 1.353,0 Z" /></g><g
       transform="translate(43.8467,71.02)"
       id="g16"><path
         id="path18"
         style="fill:#eeeeee;fill-opacity:1;fill-rule:nonzero;stroke:none"
         d="m 0,0 -5.491,10.997 h 1.373 L 1.373,0 Z" /></g><path
       id="path20"
       style="fill:#eeeeee;fill-opacity:1;fill-rule:nonzero;stroke:none"
       d="m 45.198,69.731 h 10.094 v 0.758 H 45.198 Z" /><g
       transform="translate(55.2705,71.02)"
       id="g22"><path
         id="path24"
         style="fill:#eeeeee;fill-opacity:1;fill-rule:nonzero;stroke:none"
         d="M 0,0 5.632,10.997 H 7.005 L 1.353,0 Z" /></g><g
       transform="translate(67.7441,71.02)"
       id="g26"><path
         id="path28"
         style="fill:#eeeeee;fill-opacity:1;fill-rule:nonzero;stroke:none"
         d="m 0,0 -5.49,10.997 h 1.373 L 1.373,0 Z" /></g><path
       id="path30"
       style="fill:#eeeeee;fill-opacity:1;fill-rule:nonzero;stroke:none"
       d="M 9.603,53.915 H 23.106 V 52.484 H 9.603 Z m 0,4.674 H 23.106 V 57.158 H 9.603 Z" /><g
       id="g32"><g
         clip-path="url(#clipPath38)"
         id="g34"><g
           transform="translate(31.0605,65.6724)"
           id="g40"><path
             id="path42"
             style="fill:#eeeeee;fill-opacity:1;fill-rule:nonzero;stroke:none"
             d="m 0,0 c -1.911,-2.337 -3.297,-5.438 -3.297,-9.755 0,-4.245 1.439,-7.298 3.297,-9.683 h -1.806 c -1.649,1.98 -3.428,5.033 -3.428,9.683 0.026,4.699 1.779,7.752 3.428,9.755 z" /></g><g
           transform="translate(43.7783,53.6279)"
           id="g44"><path
             id="path46"
             style="fill:#eeeeee;fill-opacity:1;fill-rule:nonzero;stroke:none"
             d="M 0,0 -4.37,9.254 H -4.423 L -8.793,0 h -1.832 l 5.417,10.995 h 1.623 L 1.832,0 Z" /></g><g
           transform="translate(48.54,50.3608)"
           id="g48"><path
             id="path50"
             style="fill:#eeeeee;fill-opacity:1;fill-rule:nonzero;stroke:none"
             d="M 0,0 C 0,0.882 0.654,1.502 1.57,1.502 2.485,1.502 3.114,0.882 3.114,0 3.114,-0.859 2.513,-1.502 1.544,-1.502 0.628,-1.502 0,-0.859 0,0" /></g><g
           transform="translate(64.791,53.6279)"
           id="g52"><path
             id="path54"
             style="fill:#eeeeee;fill-opacity:1;fill-rule:nonzero;stroke:none"
             d="M 0,0 -4.371,9.254 H -4.424 L -8.793,0 h -1.832 l 5.417,10.995 h 1.622 L 1.831,0 Z" /></g><g
           transform="translate(68.7148,46.2344)"
           id="g56"><path
             id="path58"
             style="fill:#eeeeee;fill-opacity:1;fill-rule:nonzero;stroke:none"
             d="m 0,0 c 1.857,2.361 3.297,5.462 3.297,9.755 0,4.269 -1.412,7.322 -3.297,9.683 H 1.779 C 3.454,17.482 5.207,14.429 5.207,9.731 5.207,5.057 3.454,2.027 1.779,0 Z" /></g><path
           id="path60"
           style="fill:#eeeeee;fill-opacity:1;fill-rule:nonzero;stroke:none"
           d="M 76.67,53.915 H 90.172 V 52.484 H 76.67 Z m 0,4.674 H 90.172 V 57.158 H 76.67 Z" /><g
           transform="translate(26.1367,41.3457)"
           id="g62"><path
             id="path64"
             style="fill:#eeeeee;fill-opacity:1;fill-rule:nonzero;stroke:none"
             d="m 0,0 c -1.911,-2.338 -3.297,-5.437 -3.297,-9.755 0,-4.245 1.439,-7.298 3.297,-9.682 h -1.806 c -1.649,1.979 -3.428,5.032 -3.428,9.682 0.026,4.698 1.779,7.751 3.428,9.755 z" /></g><g
           transform="translate(32.4429,36.0049)"
           id="g66"><path
             id="path68"
             style="fill:#eeeeee;fill-opacity:1;fill-rule:nonzero;stroke:none"
             d="m 0,0 h -1.334 l 1.098,5.677 h 1.544 z m -3.297,0 h -1.335 l 1.099,5.677 h 1.544 z" /></g><g
           transform="translate(35.4253,21.9082)"
           id="g70"><path
             id="path72"
             style="fill:#eeeeee;fill-opacity:1;fill-rule:nonzero;stroke:none"
             d="m 0,0 c 1.858,2.361 3.297,5.462 3.297,9.755 0,4.268 -1.413,7.321 -3.297,9.682 H 1.779 C 3.454,17.481 5.208,14.429 5.208,9.73 5.208,5.056 3.454,2.027 1.779,0 Z" /></g><path
           id="path74"
           style="fill:#eeeeee;fill-opacity:1;fill-rule:nonzero;stroke:none"
           d="M 55.418,21.812 H 42.334 v 1.192 h 13.084 z" /><g
           transform="translate(62.3262,41.3457)"
           id="g76"><path
             id="path78"
             style="fill:#eeeeee;fill-opacity:1;fill-rule:nonzero;stroke:none"
             d="m 0,0 c -1.91,-2.338 -3.297,-5.437 -3.297,-9.755 0,-4.245 1.44,-7.298 3.297,-9.682 h -1.806 c -1.649,1.979 -3.428,5.032 -3.428,9.682 0.027,4.698 1.779,7.751 3.428,9.755 z" /></g><g
           transform="translate(68.6328,36.0049)"
           id="g80"><path
             id="path82"
             style="fill:#eeeeee;fill-opacity:1;fill-rule:nonzero;stroke:none"
             d="m 0,0 h -1.335 l 1.099,5.677 h 1.544 z m -3.298,0 h -1.335 l 1.1,5.677 h 1.544 z" /></g><g
           transform="translate(71.6152,21.9082)"
           id="g84"><path
             id="path86"
             style="fill:#eeeeee;fill-opacity:1;fill-rule:nonzero;stroke:none"
             d="m 0,0 c 1.857,2.361 3.297,5.462 3.297,9.755 0,4.268 -1.413,7.321 -3.297,9.682 H 1.779 C 3.453,17.481 5.207,14.429 5.207,9.73 5.207,5.056 3.453,2.027 1.779,0 Z" /></g></g></g></g></svg>
